<?xml version="1.0" encoding="UTF-8"?>
<svg xmlns="http://www.w3.org/2000/svg" xmlns:xlink="http://www.w3.org/1999/xlink" width="223pt" height="39pt" viewBox="0 0 223 39" version="1.1">
<g id="surface1">
<path style=" stroke:none;fill-rule:nonzero;fill:rgb(0%,0%,0%);fill-opacity:1;" d="M 67.917969 3.664062 C 62.664062 8.699219 57.660156 15.007812 56.070312 18.574219 C 54.953125 20.996094 55.367188 22.6875 57.214844 23.132812 C 57.980469 23.324219 60.878906 22.113281 62.980469 20.710938 L 63.96875 20.042969 L 64.414062 20.933594 C 65.019531 22.175781 66.070312 22.207031 68.332031 20.996094 C 69.574219 20.328125 70.277344 20.136719 70.339844 20.359375 C 70.722656 21.507812 71.804688 21.984375 73.941406 21.984375 C 75.121094 21.984375 76.203125 21.824219 76.296875 21.667969 C 76.425781 21.476562 75.628906 21.347656 74.164062 21.347656 C 70.820312 21.347656 70.179688 20.457031 71.996094 18.386719 C 72.539062 17.78125 72.953125 17.207031 72.953125 17.078125 C 72.953125 16.535156 71.996094 17.015625 71.007812 18.035156 C 69.832031 19.246094 66.964844 21.03125 66.167969 21.03125 C 65.878906 21.03125 65.5625 20.871094 65.464844 20.710938 C 65.179688 20.234375 66.519531 18.003906 67.570312 17.238281 C 68.652344 16.441406 68.746094 15.929688 67.886719 15.929688 C 67.539062 15.929688 66.804688 16.472656 66.199219 17.140625 C 63.9375 19.785156 58.871094 22.621094 57.34375 22.113281 C 56.070312 21.636719 56.070312 20.167969 57.40625 18.957031 C 60.273438 16.34375 71.933594 3.472656 72.984375 1.785156 C 73.652344 0.667969 73.460938 0 72.441406 0 C 71.933594 0 70.5625 1.113281 67.917969 3.664062 Z M 68.621094 4.84375 C 66.328125 7.550781 62.183594 11.886719 61.644531 12.171875 C 61.292969 12.363281 61.929688 11.46875 63.046875 10.164062 C 65.878906 6.914062 68.90625 3.824219 69.097656 3.984375 C 69.160156 4.078125 68.972656 4.460938 68.621094 4.84375 Z M 68.621094 4.84375 "/>
<path style=" stroke:none;fill-rule:nonzero;fill:rgb(0%,0%,0%);fill-opacity:1;" d="M 25.898438 2.964844 C 24.179688 4.429688 22.394531 5.894531 21.949219 6.214844 C 11.117188 14.464844 10.957031 14.5625 8.855469 14.785156 C 6.59375 15.039062 5.222656 15.582031 6.847656 15.613281 C 8.027344 15.613281 8.886719 16.121094 8.441406 16.503906 C 8.25 16.664062 7.359375 17.398438 6.433594 18.128906 C 3.949219 20.042969 4.652344 19.722656 8.089844 17.429688 L 11.054688 15.390625 L 14.496094 15.199219 C 16.40625 15.070312 19.050781 14.976562 20.453125 14.976562 C 23.191406 14.976562 23.320312 15.070312 22.492188 16.949219 C 22.234375 17.523438 21.566406 19.214844 20.992188 20.710938 C 20.453125 22.207031 19.910156 23.609375 19.847656 23.832031 C 19.75 24.023438 19.878906 24.214844 20.101562 24.214844 C 20.355469 24.214844 21.027344 23.035156 21.632812 21.410156 C 23.160156 17.492188 24.242188 15.167969 24.65625 14.910156 C 24.847656 14.785156 25.328125 14.65625 25.742188 14.65625 C 26.121094 14.65625 26.441406 14.496094 26.441406 14.339844 C 26.441406 14.148438 26.15625 14.019531 25.835938 14.019531 C 24.914062 14.019531 24.785156 13.574219 25.328125 12.363281 C 26.570312 9.558594 29.628906 1.464844 29.628906 0.925781 C 29.628906 0.605469 29.5 0.320312 29.339844 0.320312 C 29.179688 0.320312 27.652344 1.496094 25.898438 2.964844 Z M 25.550781 9.113281 L 23.636719 13.859375 L 18.667969 14.019531 C 15.929688 14.113281 13.699219 14.082031 13.699219 13.988281 C 13.699219 13.859375 15.609375 12.363281 17.9375 10.640625 C 20.230469 8.921875 23.289062 6.59375 24.6875 5.480469 C 26.472656 4.046875 27.269531 3.570312 27.332031 3.886719 C 27.398438 4.175781 26.570312 6.5 25.550781 9.113281 Z M 25.550781 9.113281 "/>
<path style=" stroke:none;fill-rule:nonzero;fill:rgb(0%,0%,0%);fill-opacity:1;" d="M 212.296875 5.003906 C 208.570312 10.101562 209.238281 9.558594 206.722656 9.558594 C 205.0625 9.558594 204.523438 9.65625 204.523438 10.003906 C 204.523438 10.546875 205.222656 10.832031 206.625 10.832031 C 207.230469 10.832031 207.707031 10.992188 207.707031 11.152344 C 207.707031 11.34375 207.167969 12.332031 206.53125 13.320312 C 205.894531 14.304688 205.0625 15.675781 204.683594 16.3125 C 203.855469 17.875 203.375 18.195312 199.425781 19.785156 C 195.445312 21.378906 193.691406 21.699219 193.691406 20.871094 C 193.691406 20.234375 195.347656 17.492188 196.113281 16.886719 C 196.6875 16.378906 196.6875 15.292969 196.113281 15.292969 C 195.890625 15.292969 195.09375 16.121094 194.390625 17.140625 C 193.660156 18.160156 192.863281 19.179688 192.609375 19.40625 C 192.097656 19.851562 192.417969 21.570312 193.117188 22.050781 C 193.914062 22.589844 196.75 21.921875 199.710938 20.519531 C 201.367188 19.753906 202.769531 19.179688 202.867188 19.277344 C 202.929688 19.339844 202.867188 19.976562 202.707031 20.679688 C 202.292969 22.273438 202.898438 23.417969 203.980469 23.070312 C 205.414062 22.621094 210.574219 18.703125 210.226562 18.351562 C 210.160156 18.289062 208.949219 19.054688 207.550781 20.074219 C 204.585938 22.207031 203.664062 22.589844 203.34375 21.792969 C 203.089844 21.09375 204.96875 17.269531 207.582031 13.285156 C 209.777344 9.941406 209.589844 10.035156 212.804688 10.132812 C 214.972656 10.195312 221.535156 9.527344 221.886719 9.207031 C 222.042969 9.050781 219.910156 8.921875 216.691406 8.921875 C 212.457031 8.921875 211.210938 8.824219 211.210938 8.507812 C 211.210938 8.285156 212.074219 7.042969 213.125 5.765625 C 214.175781 4.460938 215.003906 3.25 214.941406 3.058594 C 214.652344 2.199219 213.953125 2.707031 212.296875 5.003906 Z M 212.296875 5.003906 "/>
<path style=" stroke:none;fill-rule:nonzero;fill:rgb(0%,0%,0%);fill-opacity:1;" d="M 179.164062 7.742188 C 178.144531 8.507812 175.628906 10.863281 173.558594 12.96875 C 170.5625 16.058594 169.640625 16.855469 168.714844 17.015625 C 168.015625 17.140625 167.570312 17.429688 167.570312 17.683594 C 167.570312 17.9375 167.726562 18.160156 167.886719 18.160156 C 168.621094 18.160156 168.046875 19.054688 165.082031 22.75 C 159.953125 29.058594 157.246094 33.390625 157.4375 34.984375 C 157.535156 35.75 157.660156 35.84375 158.617188 35.78125 C 159.445312 35.75 160.082031 35.367188 161.421875 34.03125 C 165.308594 30.269531 169.734375 23.800781 170.691406 20.550781 C 170.882812 19.851562 171.007812 18.925781 170.976562 18.480469 C 170.914062 17.714844 170.976562 17.683594 173.460938 17.492188 C 175.691406 17.332031 175.789062 17.300781 174.257812 17.269531 C 171.074219 17.140625 171.105469 16.984375 175.722656 12.425781 C 178.6875 9.558594 180.246094 8.21875 180.980469 8.03125 C 181.746094 7.839844 182.0625 7.582031 182.0625 7.167969 C 182.0625 6.085938 181.140625 6.308594 179.164062 7.742188 Z M 170.117188 19.691406 C 170.117188 22.113281 165.273438 29.570312 161.230469 33.390625 C 159.445312 35.082031 158.394531 35.398438 158.585938 34.253906 C 158.839844 32.660156 162.375 27.625 167.441406 21.570312 C 169.066406 19.660156 170.117188 18.925781 170.117188 19.691406 Z M 170.117188 19.691406 "/>
<path style=" stroke:none;fill-rule:nonzero;fill:rgb(0%,0%,0%);fill-opacity:1;" d="M 199.332031 11.40625 C 198.660156 12.140625 198.628906 13.0625 199.234375 13.0625 C 199.839844 13.0625 200.699219 11.851562 200.476562 11.28125 C 200.253906 10.675781 199.933594 10.707031 199.332031 11.40625 Z M 199.332031 11.40625 "/>
<path style=" stroke:none;fill-rule:nonzero;fill:rgb(0%,0%,0%);fill-opacity:1;" d="M 47.246094 13.128906 C 46.894531 13.542969 45.777344 15.261719 44.792969 16.949219 C 43.804688 18.640625 42.625 20.328125 42.179688 20.679688 C 41.765625 21.03125 41.542969 21.378906 41.699219 21.476562 C 41.859375 21.601562 40.839844 23.609375 39.40625 25.96875 C 34.628906 33.839844 33.480469 35.84375 33.449219 36.226562 C 33.449219 36.898438 34.375 36.707031 34.851562 35.910156 C 35.074219 35.527344 36.539062 33.136719 38.101562 30.589844 C 41.382812 25.203125 44.152344 21.347656 44.757812 21.347656 C 45.015625 21.347656 45.300781 21.476562 45.394531 21.667969 C 45.683594 22.144531 46.828125 22.050781 48.773438 21.410156 C 50.875 20.710938 52.722656 19.339844 53.390625 17.90625 C 53.839844 16.949219 53.839844 16.792969 53.390625 16.089844 C 52.4375 14.625 50.335938 14.65625 48.105469 16.121094 C 47.402344 16.601562 46.734375 16.886719 46.605469 16.792969 C 46.511719 16.664062 46.796875 16.027344 47.246094 15.324219 C 48.742188 13.09375 48.742188 11.503906 47.246094 13.128906 Z M 52.085938 16.3125 C 52.53125 16.503906 52.882812 16.855469 52.882812 17.078125 C 52.882812 18.386719 48.804688 21.347656 47.019531 21.347656 C 45.9375 21.347656 45.238281 21.03125 45.238281 20.550781 C 45.238281 19.914062 48.167969 17.175781 49.539062 16.535156 C 51.066406 15.835938 51.035156 15.835938 52.085938 16.3125 Z M 52.085938 16.3125 "/>
<path style=" stroke:none;fill-rule:nonzero;fill:rgb(0%,0%,0%);fill-opacity:1;" d="M 131.472656 13.445312 C 131.058594 14.019531 130.105469 15.515625 129.371094 16.792969 C 128.671875 18.035156 127.683594 19.371094 127.238281 19.722656 C 126.792969 20.074219 126.503906 20.519531 126.632812 20.710938 C 126.757812 20.933594 124.847656 24.40625 122.363281 28.515625 C 119.878906 32.59375 117.871094 36.101562 117.871094 36.292969 C 117.871094 37.152344 118.890625 36.515625 119.75 35.144531 C 120.261719 34.285156 121.375 32.5 122.234375 31.097656 C 124.5625 27.304688 127.269531 23.195312 128.160156 22.144531 C 128.894531 21.316406 129.054688 21.21875 129.625 21.570312 C 130.550781 22.144531 131.472656 22.082031 133.386719 21.378906 C 136.09375 20.390625 138.261719 18.351562 138.261719 16.761719 C 138.261719 16.503906 137.878906 15.996094 137.398438 15.613281 C 136.222656 14.6875 134.246094 14.878906 132.71875 16.058594 C 131.027344 17.332031 130.804688 17.078125 131.886719 15.039062 C 132.398438 14.050781 132.84375 13.03125 132.84375 12.808594 C 132.84375 12.140625 132.269531 12.394531 131.472656 13.445312 Z M 136.476562 16.25 C 136.953125 16.410156 137.304688 16.792969 137.304688 17.140625 C 137.304688 17.9375 134.820312 20.234375 133.289062 20.871094 C 131.539062 21.601562 129.660156 21.445312 129.660156 20.550781 C 129.660156 19.945312 132.335938 17.460938 133.832031 16.632812 C 135.359375 15.835938 135.394531 15.835938 136.476562 16.25 Z M 136.476562 16.25 "/>
<path style=" stroke:none;fill-rule:nonzero;fill:rgb(0%,0%,0%);fill-opacity:1;" d="M 85.726562 13.382812 C 83.910156 13.988281 81.683594 15.421875 81.109375 16.3125 C 80.535156 17.238281 81.554688 17.90625 83.847656 18.128906 C 86.523438 18.386719 86.492188 18.957031 83.6875 20.359375 C 81.871094 21.316406 81.425781 21.410156 80.917969 21.09375 C 80.566406 20.871094 80.214844 20.710938 80.121094 20.710938 C 79.800781 20.710938 79.960938 21.636719 80.3125 21.859375 C 81.109375 22.335938 86.171875 20.296875 86.90625 19.179688 C 87.320312 18.511719 87.320312 18.386719 86.90625 17.96875 C 86.652344 17.683594 85.632812 17.363281 84.613281 17.238281 C 83.625 17.109375 82.734375 16.917969 82.636719 16.792969 C 81.839844 15.996094 85.824219 14.210938 88.339844 14.242188 C 90.1875 14.273438 90.601562 13.957031 89.773438 13.128906 C 89.230469 12.585938 87.765625 12.679688 85.726562 13.382812 Z M 85.726562 13.382812 "/>
<path style=" stroke:none;fill-rule:nonzero;fill:rgb(0%,0%,0%);fill-opacity:1;" d="M 99.203125 15.039062 C 98.4375 15.644531 97.929688 15.738281 95.378906 15.773438 C 92.578125 15.773438 92.386719 15.804688 91.238281 16.761719 C 89.167969 18.417969 89.136719 20.710938 91.207031 20.710938 C 92.195312 20.679688 94.394531 19.722656 96.941406 18.195312 C 97.707031 17.714844 98.121094 17.589844 98.121094 17.84375 C 98.121094 18.957031 92.226562 27.71875 89.773438 30.269531 C 87.289062 32.882812 86.8125 33.136719 84.359375 33.136719 C 82.636719 33.136719 82.128906 33.234375 81.96875 33.648438 C 81.714844 34.347656 82.667969 35.050781 83.847656 35.050781 C 84.359375 35.050781 85.378906 34.730469 86.078125 34.378906 C 87.449219 33.679688 87.640625 33.679688 92.226562 34.285156 C 93.085938 34.378906 93.339844 34.347656 93.023438 34.15625 C 92.769531 33.964844 91.78125 33.742188 90.855469 33.613281 C 89.902344 33.488281 89.074219 33.199219 88.976562 32.945312 C 88.882812 32.722656 89.296875 32.054688 89.902344 31.480469 C 92.320312 29.15625 96.015625 24.023438 99.011719 18.800781 C 101.082031 15.199219 101.179688 13.511719 99.203125 15.039062 Z M 95.890625 17.175781 C 95.890625 17.554688 92.257812 19.4375 91.460938 19.4375 C 90.507812 19.4375 90.632812 19.023438 91.90625 17.875 C 92.832031 17.078125 93.339844 16.886719 94.457031 16.886719 C 95.253906 16.886719 95.890625 17.015625 95.890625 17.175781 Z M 95.890625 17.175781 "/>
<path style=" stroke:none;fill-rule:nonzero;fill:rgb(0%,0%,0%);fill-opacity:1;" d="M 121.535156 15.261719 C 120.484375 15.773438 119.210938 16.570312 118.699219 17.046875 C 117.808594 17.9375 116.914062 19.628906 116.914062 20.519531 C 116.914062 21.347656 118.761719 22.082031 120.230469 21.859375 C 123.511719 21.347656 123.925781 21.253906 123.925781 20.964844 C 123.925781 20.773438 123.605469 20.710938 123.222656 20.839844 C 120.675781 21.570312 118.09375 21.445312 117.742188 20.550781 C 117.425781 19.660156 117.902344 19.214844 119.402344 18.988281 C 122.171875 18.609375 126.121094 15.453125 124.847656 14.625 C 124.117188 14.179688 123.542969 14.273438 121.535156 15.261719 Z M 123.289062 15.773438 C 123.289062 16.25 121.121094 17.523438 120.261719 17.523438 C 119.304688 17.523438 119.816406 16.917969 121.4375 16.121094 C 123.382812 15.136719 123.289062 15.167969 123.289062 15.773438 Z M 123.289062 15.773438 "/>
<path style=" stroke:none;fill-rule:nonzero;fill:rgb(0%,0%,0%);fill-opacity:1;" d="M 162.027344 16.410156 C 159.859375 17.523438 159.859375 17.523438 160.050781 16.761719 C 160.210938 16.089844 159.828125 15.613281 159.125 15.613281 C 159.0625 15.613281 158.554688 16.441406 157.980469 17.429688 C 157.4375 18.449219 156.769531 19.40625 156.578125 19.59375 C 156.035156 20.042969 155.6875 21.984375 156.132812 21.984375 C 156.355469 21.984375 157.375 21.15625 158.457031 20.136719 C 160.210938 18.511719 163.808594 16.25 164.636719 16.25 C 164.828125 16.25 165.019531 16.632812 165.082031 17.109375 L 165.179688 18.003906 L 165.753906 17.175781 C 166.039062 16.726562 166.230469 16.089844 166.101562 15.804688 C 165.785156 15.007812 164.414062 15.199219 162.027344 16.410156 Z M 162.027344 16.410156 "/>
<path style=" stroke:none;fill-rule:nonzero;fill:rgb(0%,0%,0%);fill-opacity:1;" d="M 29.882812 16.792969 C 28.003906 18.800781 27.269531 20.773438 28.097656 21.601562 C 28.703125 22.207031 29.722656 22.050781 31.730469 20.996094 C 32.941406 20.328125 33.640625 20.136719 33.703125 20.359375 C 34.085938 21.507812 35.171875 21.984375 37.304688 21.984375 C 38.484375 21.984375 39.566406 21.824219 39.664062 21.667969 C 39.789062 21.476562 38.992188 21.347656 37.527344 21.347656 C 36.125 21.347656 35.011719 21.1875 34.789062 20.964844 C 34.152344 20.328125 34.375 19.277344 35.363281 18.320312 C 35.902344 17.8125 36.316406 17.300781 36.316406 17.140625 C 36.316406 16.535156 35.425781 16.949219 34.375 18.035156 C 33.164062 19.277344 30.328125 21.03125 29.5 21.03125 C 29.214844 21.03125 28.894531 20.804688 28.800781 20.582031 C 28.574219 20.042969 30.328125 17.363281 31.0625 17.109375 C 31.632812 16.855469 31.699219 15.929688 31.125 15.929688 C 30.902344 15.929688 30.328125 16.3125 29.882812 16.792969 Z M 29.882812 16.792969 "/>
<path style=" stroke:none;fill-rule:nonzero;fill:rgb(0%,0%,0%);fill-opacity:1;" d="M 103.789062 16.792969 C 101.910156 18.800781 101.179688 20.773438 102.007812 21.601562 C 102.613281 22.207031 103.632812 22.050781 105.542969 21.03125 C 107.613281 19.945312 107.675781 19.914062 107.675781 20.519531 C 107.675781 21.378906 109.175781 21.984375 111.308594 21.984375 C 112.457031 21.984375 113.476562 21.824219 113.570312 21.667969 C 113.699219 21.476562 112.902344 21.347656 111.4375 21.347656 C 110.035156 21.347656 108.917969 21.1875 108.695312 20.964844 C 108.058594 20.328125 108.28125 19.277344 109.269531 18.320312 C 109.8125 17.8125 110.226562 17.300781 110.226562 17.140625 C 110.226562 16.535156 109.332031 16.949219 108.28125 18.035156 C 107.710938 18.640625 106.464844 19.5625 105.574219 20.105469 C 102.835938 21.667969 102.039062 21.21875 103.375 18.957031 C 103.824219 18.160156 104.554688 17.300781 104.96875 17.015625 C 105.414062 16.726562 105.765625 16.378906 105.765625 16.21875 C 105.765625 15.613281 104.585938 15.964844 103.789062 16.792969 Z M 103.789062 16.792969 "/>
<path style=" stroke:none;fill-rule:nonzero;fill:rgb(0%,0%,0%);fill-opacity:1;" d="M 145.015625 16.503906 C 142.816406 17.207031 141.445312 18.511719 141.445312 19.882812 C 141.445312 22.015625 143.515625 22.589844 146.03125 21.1875 C 147.785156 20.199219 147.914062 20.199219 148.296875 21.09375 C 148.644531 21.921875 150.300781 22.238281 151.226562 21.699219 C 151.671875 21.445312 151.480469 21.378906 150.300781 21.347656 C 148.933594 21.347656 148.773438 21.285156 148.773438 20.648438 C 148.773438 20.199219 149.472656 19.214844 150.589844 18.097656 C 151.578125 17.078125 152.308594 16.1875 152.179688 16.058594 C 152.054688 15.929688 151.734375 16.027344 151.480469 16.25 C 151.097656 16.570312 150.875 16.570312 150.621094 16.3125 C 150.078125 15.773438 146.988281 15.867188 145.015625 16.503906 Z M 149.984375 17.269531 C 149.917969 17.492188 148.835938 18.386719 147.5625 19.246094 C 145.746094 20.488281 145.015625 20.804688 143.929688 20.839844 C 142.6875 20.871094 142.5625 20.773438 142.464844 20.074219 C 142.335938 18.894531 143.039062 18.160156 144.949219 17.492188 C 146.988281 16.792969 150.175781 16.664062 149.984375 17.269531 Z M 149.984375 17.269531 "/>
<path style=" stroke:none;fill-rule:nonzero;fill:rgb(0%,0%,0%);fill-opacity:1;" d="M 180.3125 16.601562 C 179.355469 16.949219 178.207031 17.332031 177.761719 17.429688 C 177.03125 17.554688 176.933594 17.746094 176.871094 19.054688 C 176.742188 21.984375 178.496094 22.8125 181.457031 21.15625 L 182.957031 20.296875 L 183.59375 21.15625 C 184.039062 21.792969 184.453125 21.984375 185.410156 21.984375 C 186.078125 21.984375 186.746094 21.824219 186.84375 21.667969 C 186.96875 21.476562 186.460938 21.347656 185.601562 21.347656 C 184.324219 21.347656 184.132812 21.253906 184.132812 20.648438 C 184.132812 20.265625 184.835938 19.277344 185.886719 18.226562 C 187.542969 16.570312 187.957031 15.929688 187.382812 15.929688 C 187.257812 15.929688 186.96875 16.089844 186.746094 16.3125 C 186.460938 16.601562 186.269531 16.601562 185.980469 16.3125 C 185.375 15.707031 182.253906 15.867188 180.3125 16.601562 Z M 185.410156 17.207031 C 185.410156 17.554688 182.476562 19.785156 181.011719 20.519531 C 180.4375 20.839844 179.484375 21.03125 178.941406 20.964844 C 178.113281 20.902344 177.890625 20.710938 177.828125 20.011719 C 177.699219 18.925781 178.71875 17.96875 180.628906 17.363281 C 182.285156 16.855469 185.410156 16.726562 185.410156 17.207031 Z M 185.410156 17.207031 "/>
<path style=" stroke:none;fill-rule:nonzero;fill:rgb(0%,0%,0%);fill-opacity:1;" d="M 152.214844 21.253906 C 152.40625 21.316406 152.785156 21.316406 153.011719 21.253906 C 153.199219 21.15625 153.042969 21.09375 152.597656 21.09375 C 152.148438 21.09375 151.992188 21.15625 152.214844 21.253906 Z M 152.214844 21.253906 "/>
<path style=" stroke:none;fill-rule:nonzero;fill:rgb(0%,0%,0%);fill-opacity:1;" d="M 187.574219 21.253906 C 187.765625 21.316406 188.148438 21.316406 188.371094 21.253906 C 188.5625 21.15625 188.402344 21.09375 187.957031 21.09375 C 187.511719 21.09375 187.351562 21.15625 187.574219 21.253906 Z M 187.574219 21.253906 "/>
</g>
</svg>
